<svg width="64" height="64" viewBox="0 0 64 64" fill="none" xmlns="http://www.w3.org/2000/svg">
<path d="M15.5876 32.416V13L46.9821 32.5232L15.5876 51.8319V32.416ZM15.5876 32.416L2 32.5232" stroke="white" stroke-width="2.86055" stroke-linecap="round" stroke-linejoin="round"/>
<path d="M57.137 32.4517C57.137 35.5324 54.6396 38.0298 51.5589 38.0298C48.4782 38.0298 45.9808 35.5324 45.9808 32.4517C45.9808 29.371 48.4782 26.8737 51.5589 26.8737C54.6396 26.8737 57.137 29.371 57.137 32.4517ZM48.6158 32.4517C48.6158 34.0771 49.9335 35.3948 51.5589 35.3948C53.1843 35.3948 54.502 34.0771 54.502 32.4517C54.502 30.8263 53.1843 29.5086 51.5589 29.5086C49.9335 29.5086 48.6158 30.8263 48.6158 32.4517Z" fill="white"/>
<path d="M62 32.4517H55.9929" stroke="white" stroke-width="2.86055" stroke-linecap="round" stroke-linejoin="round"/>
</svg>
